<svg id="图层_1" data-name="图层 1" xmlns="http://www.w3.org/2000/svg" viewBox="0 0 326.98 89.46"><defs><style>.cls-1{fill:#eb962f;}.cls-2,.cls-3{fill:#162c56;}.cls-3{font-size:29.22px;font-family:BerlinSansFBDemi-Bold, Berlin Sans FB Demi;font-weight:700;}</style></defs><title>德莱物流logo</title><path class="cls-1" d="M217.62,381.54V321.91h0v-2.67a44.11,44.11,0,0,0-53.7,53.45h7.64a36.85,36.85,0,0,1,35.3-47.42c1,0,2,.05,3,.14v59.24H236v-3.11Z" transform="translate(-162.59 -317.4)"/><path class="cls-2" d="M221.49,320.4v7.91a36.85,36.85,0,1,1-43.9,56.18h11.7a18.51,18.51,0,0,0,0-37h-9.95v25.19h1.83V355.37h8.12a10.62,10.62,0,0,1,0,21.24h0l-23.24,0h-1a44.24,44.24,0,1,0,56.44-56.17Z" transform="translate(-162.59 -317.4)"/><rect class="cls-2" x="111.74" y="31.01" width="36.86" height="5.95"/><path class="cls-2" d="M267.42,329.66a15.83,15.83,0,0,0,1.52-2.76l3.86-9.41h-7.42l-1.66,4.72a7.27,7.27,0,0,1-1.12,2.18,2,2,0,0,1-1.66.72h-1.48v5.95h3.41C265.28,331.06,266.79,330.59,267.42,329.66Z" transform="translate(-162.59 -317.4)"/><path class="cls-2" d="M307.16,346a8.2,8.2,0,0,0,2.44-1.8c.89-.89,1.33-2.4,1.33-4.55V329h-17l.84-3.09h16.41v-5.94H296.14l.64-2.43h-7.37l-.72,2.43H274.33v5.94h12.95l-1,3.09h-12v17.48H302.4A15.81,15.81,0,0,0,307.16,346Zm-22.85-5.5h-3.22v-5.56h3.22Zm10,0h-3.26v-5.56h3.26Zm6.75,0v-5.56h3.1v3.86a1.79,1.79,0,0,1-.39,1.38,2.37,2.37,0,0,1-1.47.32Z" transform="translate(-162.59 -317.4)"/><path class="cls-2" d="M292.41,356.64v1.24a8.49,8.49,0,0,0,.29,2.73,3.86,3.86,0,0,0,1,1.36c.5.43,2.33.65,5.53.65h1.28v-4.48h-1.28c-1.11,0-1.68-.31-1.68-.95v-.55Z" transform="translate(-162.59 -317.4)"/><path class="cls-2" d="M290.91,364.47a3.8,3.8,0,0,1-.38-2.05v-5.76h-6.76v7a13.72,13.72,0,0,0,.51,4.2,4,4,0,0,0,1.75,2.24c.83.52,2.39.77,4.66.77h10.56V365h-8.61C291.74,365,291.16,364.8,290.91,364.47Z" transform="translate(-162.59 -317.4)"/><path class="cls-2" d="M265.69,330.83l-1.77,4.54a6.49,6.49,0,0,1-1.25,2.21,2.46,2.46,0,0,1-1.84.65H259v6.17h3.84v26.5h6.76V339.35l3.47-8.52Z" transform="translate(-162.59 -317.4)"/><path class="cls-2" d="M274.33,362.85a3.71,3.71,0,0,1-.53,1.84,1.13,1.13,0,0,1-.79.27h-.61v5.94h2.28c2,0,3.28-.21,3.81-.62a4,4,0,0,0,1.21-1.54,8.66,8.66,0,0,0,.56-2l1.53-10.11h-6.56Z" transform="translate(-162.59 -317.4)"/><path class="cls-2" d="M327,347.69l2-2.35,3.61,3a6.8,6.8,0,0,0,3.94,1.48h2.32v-6.18l-1.24-.08a4.15,4.15,0,0,1-2-1l-3.83-2.78,1.15-2.1h-7.25l-2.85,4.36a4.53,4.53,0,0,1-1.11,1.15,3.55,3.55,0,0,1-1.9.41h-1.41v6.18h3.86A6,6,0,0,0,327,347.69Z" transform="translate(-162.59 -317.4)"/><polygon class="cls-2" points="201.18 2.22 201.18 0.2 193.09 0.2 193.09 2.22 170.98 2.22 170.98 0.2 162.89 0.2 162.89 2.22 155.78 2.22 155.78 8.4 162.89 8.4 162.89 10.98 170.98 10.98 170.98 8.4 193.09 8.4 193.09 10.98 201.18 10.98 201.18 8.4 208.05 8.4 208.05 2.22 201.18 2.22"/><path class="cls-2" d="M357.13,337.33l-2.88,4.33a4.2,4.2,0,0,1-1.12,1.14,3.35,3.35,0,0,1-1.86.41h-1.44v6.18h3.89a5.9,5.9,0,0,0,2.64-.6,6.51,6.51,0,0,0,2-1.53l2-2.34,3.64,3A6,6,0,0,0,366,349a6.2,6.2,0,0,0,2.05.41h2.3v-6.18l-1.22-.08a4.13,4.13,0,0,1-2-.95l-3.82-2.74,1.14-2.11Z" transform="translate(-162.59 -317.4)"/><path class="cls-2" d="M398.43,330.54v-6.76H395v-6h-7.14v6H385.4v-3.95h-6.32v6.07a7,7,0,0,1-.32,2.92.91.91,0,0,1-.7.4h-.84v5.62h2.93a5.92,5.92,0,0,0,2.59-.68,3.86,3.86,0,0,0,2-2.55l.33-1.07h2.8V338l-7.13,12.92a7.7,7.7,0,0,1-1.42,2,1.62,1.62,0,0,1-.92.29h-.67v6.17h2a5.47,5.47,0,0,0,3-.78,8.57,8.57,0,0,0,2.36-2.71l2.8-4.64v9c0,2.33-.2,3.71-.59,4.1a2.63,2.63,0,0,1-1.89.59h-3.78l-12.16-.08a3.21,3.21,0,0,1-2.07-.51,20.33,20.33,0,0,1-3-3.2l-8.71-10.79h-7.42V336.14h22.4V330h-22.4v-2.42h-7.45V330H318.47v6.18h22.32v14.21h-8.08l-8.13,11.83a7.74,7.74,0,0,1-2.08,2.14,3.71,3.71,0,0,1-1.83.73H309.76s-.49.19-.7-2.13l-.88-6.27h-6.69l1.35,9.47c.26,1.95.91,3.23,1.92,3.86a9.61,9.61,0,0,0,4.84.93l13.49.09a8.69,8.69,0,0,0,3.92-.93c1.26-.63,2.72-2.2,4.39-4.73l9.39-14.46V363.2a2,2,0,0,1-.45,1.31,1.33,1.33,0,0,1-1,.54h-4.16V371h7.43a6.29,6.29,0,0,0,3.31-.76,4.15,4.15,0,0,0,1.81-2.31,11.11,11.11,0,0,0,.53-3.65V351.18l11,15.4a11.61,11.61,0,0,0,3.68,3.66,9,9,0,0,0,4.55.92l7.54-.05h12.81c3,0,4.92-.67,5.81-2a8.34,8.34,0,0,0,1.33-4.71v-21.2h3.25v-6.46H395v-6.21Z" transform="translate(-162.59 -317.4)"/><path class="cls-2" d="M443.27,361.64a3.89,3.89,0,0,1-.76,2.12,2.33,2.33,0,0,1-1.49.39H430.18L430,319.92H409.78l.28-2.52H403l-1.48,5.46c-.37,1.33-.8,2-1.31,2h-.92v6.76H402a5.47,5.47,0,0,0,2.78-.63,4.26,4.26,0,0,0,1.78-2.23l1.06-2.65H423l-.07,38h0l-.1,6.78,18.92,0a23.78,23.78,0,0,0,3.35-.18,4.74,4.74,0,0,0,2.35-1.06A5.12,5.12,0,0,0,449,367.5a17.33,17.33,0,0,0,.74-2.8l1.9-11.49h-7Z" transform="translate(-162.59 -317.4)"/><path class="cls-2" d="M440,330.52a4.19,4.19,0,0,0,2.5,1.64,15.32,15.32,0,0,0,3.14.29h6.93v-6.76H446.8c-1.1,0-1.73-.74-1.9-2.22l-.75-5.84H437.3l1.15,7.89Q439,329.18,440,330.52Z" transform="translate(-162.59 -317.4)"/><path class="cls-2" d="M445.4,343.12a3,3,0,0,1-.62-1.65l-1.07-6.23h-6.82l1.65,8.3a33.28,33.28,0,0,0,.81,3.56,5.45,5.45,0,0,0,1.36,2.18c.67.72,2.1,1.07,4.3,1.07h7.05v-6.76H446.6A1.58,1.58,0,0,1,445.4,343.12Z" transform="translate(-162.59 -317.4)"/><path class="cls-2" d="M486.81,344.67a24.17,24.17,0,0,0,.16-3.16V331.38h-7.45v8.75a2.88,2.88,0,0,1-.42,1.85,2.32,2.32,0,0,1-1.69.4H463l8.32-15.48h17.49v-6.18H476l-1.31-3H467.6l-1.61,3H453.82v6.18h8.69l-8.15,15.48v6.18H479c3.48,0,5.63-.44,6.44-1.35A4.75,4.75,0,0,0,486.81,344.67Z" transform="translate(-162.59 -317.4)"/><path class="cls-2" d="M488.61,364.64c-1,0-1.53-.6-1.53-1.82V350.73h-7V364a11,11,0,0,0,.38,3.15,5.5,5.5,0,0,0,1.82,2.45q1.44,1.22,5.92,1.22h1.07v-6.18Z" transform="translate(-162.59 -317.4)"/><rect class="cls-2" x="305.76" y="33.18" width="7.01" height="20.45"/><path class="cls-2" d="M456.3,362.71a3.16,3.16,0,0,1-.32,1.72c-.21.28-.85.41-1.93.41h-1.93V371H456c2.86,0,4.66-.48,5.45-1.43a7.1,7.1,0,0,0,1.54-3,14,14,0,0,0,.34-3.09V350.78h-7Z" transform="translate(-162.59 -317.4)"/><path class="cls-2" d="M402.24,331.82l-.44,28.52c-.29,2.16-.61,3.33-.93,3.53a2.5,2.5,0,0,1-1.22.28h-2v6.75h4.67a7.56,7.56,0,0,0,3-.53,3.42,3.42,0,0,0,1.86-1.86,20.29,20.29,0,0,0,1.09-4.88l1.21-31.81Z" transform="translate(-162.59 -317.4)"/><path class="cls-2" d="M413.78,331.35l.1,29c-.26,2.16-.58,3.33-.93,3.52a2.34,2.34,0,0,1-1.18.29h-2v6.76h4.64a7.12,7.12,0,0,0,3-.57,3.5,3.5,0,0,0,1.88-1.88,19.59,19.59,0,0,0,1.08-4.86l.69-32.27Z" transform="translate(-162.59 -317.4)"/><text class="cls-3" transform="translate(96.12 83.48)"><tspan xml:space="preserve">DELAI  LOGISTICS</tspan></text></svg>